<?xml version="1.0" encoding="UTF-8"?>
<!DOCTYPE svg PUBLIC "-//W3C//DTD SVG 1.1//EN" "http://www.w3.org/Graphics/SVG/1.1/DTD/svg11.dtd">
<!-- Creator: CorelDRAW X7 -->
<svg xmlns="http://www.w3.org/2000/svg" xml:space="preserve" width="0.773031in" height="0.852165in" version="1.1" style="shape-rendering:geometricPrecision; text-rendering:geometricPrecision; image-rendering:optimizeQuality; fill-rule:evenodd; clip-rule:evenodd"
viewBox="0 0 133 146"
 xmlns:xlink="http://www.w3.org/1999/xlink">
 <defs>
  <style type="text/css">
   <![CDATA[
    .fil2 {fill:none}
    .fil0 {fill:#FEFEFE}
    .fil1 {fill:url(#id4)}
   ]]>
  </style>
    <clipPath id="id0">
     <path d="M3 3l130 0 0 137 -130 0 0 -137z"/>
    </clipPath>
    <clipPath id="id1">
     <path d="M12 53l24 0c9,0 14,7 14,13 0,7 -4,12 -12,13l0 20 13 15 0 0c3,4 7,7 11,9 4,2 9,3 13,3 6,0 11,-1 15,-4 -2,0 -4,0 -6,0 -4,0 -7,-1 -9,-2 -9,-3 -14,-10 -20,-17l-13 -14c14,-3 19,-13 19,-23 0,-12 -8,-23 -25,-23 -5,0 -19,0 -25,0l0 0 26 -15 26 -16 26 16 26 15 0 36 0 47 11 0 0 -47 0 -40 0 -3 -2 -1 -29 -17 -29 -16 -3 -2 -2 2 -29 16 -29 17 -3 1 0 3 0 40 0 47 9 0 0 0 27 7 0 -73 -25 -7 0 0 1 0zm21 42c1,0 1,-1 1,-2 0,-1 0,-1 -1,-1 -1,0 -2,0 -2,1 0,1 1,2 2,2zm30 -52l32 0 11 0 -8 8 -12 14c5,2 9,5 12,8 5,6 8,13 8,22 0,8 -3,16 -9,22 -4,4 -4,4 -10,4 -1,0 -2,0 -4,0 -3,-1 -6,-1 -8,-2 -2,-1 -5,-2 -7,-4 -1,0 -1,-1 -2,-1 3,1 6,1 9,1 6,0 11,-2 15,-6 3,-3 6,-9 6,-14 0,-6 -2,-11 -6,-15 -3,-4 -8,-6 -14,-8l-9 -1 6 -7 10 -11 -20 0 0 -10zm0 47l17 0 0 8 -17 0 0 -8z"/>
    </clipPath>
     <clipPath id="id2">
      <path d="M12 53l24 0c9,0 14,7 14,13 0,7 -4,12 -12,13l0 20 13 15 0 0c3,4 7,7 11,9 4,2 9,3 13,3 6,0 11,-1 15,-4 -2,0 -4,0 -6,0 -4,0 -7,-1 -9,-2 -9,-3 -14,-10 -20,-17l-13 -14c14,-3 19,-13 19,-23 0,-12 -8,-23 -25,-23 -5,0 -19,0 -25,0l0 0 26 -15 26 -16 26 16 26 15 0 36 0 47 11 0 0 -47 0 -40 0 -3 -2 -1 -29 -17 -29 -16 -3 -2 -2 2 -29 16 -29 17 -3 1 0 3 0 40 0 47 9 0 0 0 27 7 0 -73 -25 -7 0 0 1 0zm21 42c1,0 1,-1 1,-2 0,-1 0,-1 -1,-1 -1,0 -2,0 -2,1 0,1 1,2 2,2zm30 -52l32 0 11 0 -8 8 -12 14c5,2 9,5 12,8 5,6 8,13 8,22 0,8 -3,16 -9,22 -4,4 -4,4 -10,4 -1,0 -2,0 -4,0 -3,-1 -6,-1 -8,-2 -2,-1 -5,-2 -7,-4 -1,0 -1,-1 -2,-1 3,1 6,1 9,1 6,0 11,-2 15,-6 3,-3 6,-9 6,-14 0,-6 -2,-11 -6,-15 -3,-4 -8,-6 -14,-8l-9 -1 6 -7 10 -11 -20 0 0 -10zm0 47l17 0 0 8 -17 0 0 -8z"/>
     </clipPath>
     <clipPath id="id3">
      <path d="M12 53l24 0c9,0 14,7 14,13 0,7 -4,12 -12,13l0 20 13 15 0 0c3,4 7,7 11,9 4,2 9,3 13,3 6,0 11,-1 15,-4 -2,0 -4,0 -6,0 -4,0 -7,-1 -9,-2 -9,-3 -14,-10 -20,-17l-13 -14c14,-3 19,-13 19,-23 0,-12 -8,-23 -25,-23 -5,0 -19,0 -25,0l0 0 26 -15 26 -16 26 16 26 15 0 36 0 47 11 0 0 -47 0 -40 0 -3 -2 -1 -29 -17 -29 -16 -3 -2 -2 2 -29 16 -29 17 -3 1 0 3 0 40 0 47 9 0 0 0 27 7 0 -73 -25 -7 0 0 1 0zm21 42c1,0 1,-1 1,-2 0,-1 0,-1 -1,-1 -1,0 -2,0 -2,1 0,1 1,2 2,2zm30 -52l32 0 11 0 -8 8 -12 14c5,2 9,5 12,8 5,6 8,13 8,22 0,8 -3,16 -9,22 -4,4 -4,4 -10,4 -1,0 -2,0 -4,0 -3,-1 -6,-1 -8,-2 -2,-1 -5,-2 -7,-4 -1,0 -1,-1 -2,-1 3,1 6,1 9,1 6,0 11,-2 15,-6 3,-3 6,-9 6,-14 0,-6 -2,-11 -6,-15 -3,-4 -8,-6 -14,-8l-9 -1 6 -7 10 -11 -20 0 0 -10zm0 47l17 0 0 8 -17 0 0 -8z"/>
     </clipPath>
  <linearGradient id="id4" gradientUnits="userSpaceOnUse" x1="126.227" y1="8.03005" x2="0.262283" y2="125.112">
   <stop offset="0" style="stop-opacity:1; stop-color:#ECB84A"/>
   <stop offset="1" style="stop-opacity:1; stop-color:#FFF2A9"/>
  </linearGradient>
 </defs>
 <g id="Layer_x0020_1">
  <metadata id="CorelCorpID_0Corel-Layer"/>
  <g id="_2800270569968">
   <path class="fil0" d="M6 137l2 0 0 9 -2 0 0 -4 -4 0 0 4 -2 0 0 -9 2 0 0 4 4 0 0 -4zm15 2l-2 4 4 0 -2 -4zm3 7l-1 -2 -5 0 -1 2 -1 0 4 -9 2 0 4 9 -2 0zm16 -6c0,0 0,-1 -1,-1 0,0 0,-1 -1,-1l-3 0 0 4 3 0c1,0 1,0 1,-1 1,0 1,0 1,-1zm-3 3l-2 0 0 3 -1 0 0 -9 4 0c1,0 1,0 2,0 0,1 1,1 1,1 0,1 0,1 0,2 0,1 0,1 0,2 -1,1 -1,1 -2,1l3 3 -2 0 -3 -3zm16 2c1,0 1,0 2,-1 0,0 1,0 1,-1 0,0 0,-1 0,-1 0,-1 0,-2 0,-2 0,-1 -1,-1 -1,-1 -1,0 -1,-1 -2,-1l-2 0 0 7 2 0zm0 -8c1,0 2,0 3,1 0,0 1,1 1,1 1,1 1,2 1,3 0,1 0,1 -1,2 0,1 -1,1 -1,2 -1,0 -2,0 -3,0l-3 0 0 -9 3 0zm25 0l1 0 -3 9 -2 0 -1 -3 -1 -4 -1 4 -1 3 -2 0 -3 -9 2 0 1 5 1 2 2 -7 2 0 2 7 1 -2 2 -5zm12 2l-2 4 4 0 -2 -4zm3 7l0 -2 -5 0 -1 2 -2 0 4 -9 2 0 4 9 -2 0zm16 -6c0,0 0,-1 0,-1 -1,0 -1,-1 -2,-1l-2 0 0 4 2 0c1,0 1,0 2,-1 0,0 0,0 0,-1zm-3 3l-1 0 0 3 -2 0 0 -9 4 0c1,0 2,0 2,0 1,1 1,1 1,1 0,1 1,1 1,2 0,1 -1,1 -1,2 0,1 -1,1 -2,1l3 3 -2 0 -3 -3zm15 2l5 0 0 1 -7 0 0 -9 7 0 0 1 -5 0 0 3 5 0 0 1 -5 0 0 3z"/>
   <g style="clip-path:url(#id0)">
    <image x="3" y="3" width="130" height="137" xlink:href="FINAL R3 LOGO_Images\FINAL R3 LOGO_ImgID1.png"/>
   </g>
   <path class="fil1" d="M12 53l24 0c9,0 14,7 14,13 0,7 -4,12 -12,13l0 20 13 15 0 0c3,4 7,7 11,9 4,2 9,3 13,3 6,0 11,-1 15,-4 -2,0 -4,0 -6,0 -4,0 -7,-1 -9,-2 -9,-3 -14,-10 -20,-17l-13 -14c14,-3 19,-13 19,-23 0,-12 -8,-23 -25,-23 -5,0 -19,0 -25,0l0 0 26 -15 26 -16 26 16 26 15 0 36 0 47 11 0 0 -47 0 -40 0 -3 -2 -1 -29 -17 -29 -16 -3 -2 -2 2 -29 16 -29 17 -3 1 0 3 0 40 0 47 9 0 0 0 27 7 0 -73 -25 -7 0 0 1 0zm21 42c1,0 1,-1 1,-2 0,-1 0,-1 -1,-1 -1,0 -2,0 -2,1 0,1 1,2 2,2zm30 -52l32 0 11 0 -8 8 -12 14c5,2 9,5 12,8 5,6 8,13 8,22 0,8 -3,16 -9,22 -4,4 -4,4 -10,4 -1,0 -2,0 -4,0 -3,-1 -6,-1 -8,-2 -2,-1 -5,-2 -7,-4 -1,0 -1,-1 -2,-1 3,1 6,1 9,1 6,0 11,-2 15,-6 3,-3 6,-9 6,-14 0,-6 -2,-11 -6,-15 -3,-4 -8,-6 -14,-8l-9 -1 6 -7 10 -11 -20 0 0 -10zm0 47l17 0 0 8 -17 0 0 -8z"/>
   <g style="clip-path:url(#id1)">
    <g>
    </g>
    <g style="clip-path:url(#id2)">
     <image x="-3" y="-5" width="132" height="144" xlink:href="FINAL R3 LOGO_Images\FINAL R3 LOGO_ImgID2.png"/>
    </g>
    <g style="clip-path:url(#id3)">
    </g>
   </g>
   <path class="fil2" d="M12 53l24 0c9,0 14,7 14,13 0,7 -4,12 -12,13l0 20 13 15 0 0c3,4 7,7 11,9 4,2 9,3 13,3 6,0 11,-1 15,-4 -2,0 -4,0 -6,0 -4,0 -7,-1 -9,-2 -9,-3 -14,-10 -20,-17l-13 -14c14,-3 19,-13 19,-23 0,-12 -8,-23 -25,-23 -5,0 -19,0 -25,0l0 0 26 -15 26 -16 26 16 26 15 0 36 0 47 11 0 0 -47 0 -40 0 -3 -2 -1 -29 -17 -29 -16 -3 -2 -2 2 -29 16 -29 17 -3 1 0 3 0 40 0 47 9 0 0 0 27 7 0 -73 -25 -7 0 0 1 0zm21 42c1,0 1,-1 1,-2 0,-1 0,-1 -1,-1 -1,0 -2,0 -2,1 0,1 1,2 2,2zm30 -52l32 0 11 0 -8 8 -12 14c5,2 9,5 12,8 5,6 8,13 8,22 0,8 -3,16 -9,22 -4,4 -4,4 -10,4 -1,0 -2,0 -4,0 -3,-1 -6,-1 -8,-2 -2,-1 -5,-2 -7,-4 -1,0 -1,-1 -2,-1 3,1 6,1 9,1 6,0 11,-2 15,-6 3,-3 6,-9 6,-14 0,-6 -2,-11 -6,-15 -3,-4 -8,-6 -14,-8l-9 -1 6 -7 10 -11 -20 0 0 -10zm0 47l17 0 0 8 -17 0 0 -8z"/>
  </g>
 </g>
</svg>
